<svg id="Layer_1" data-name="Layer 1" xmlns="http://www.w3.org/2000/svg" xmlns:xlink="http://www.w3.org/1999/xlink" viewBox="0 0 32 32"><defs><style>.cls-1{fill:url(#linear-gradient);}</style><linearGradient id="linear-gradient" x1="16" y1="3.8" x2="16" y2="28.2" gradientUnits="userSpaceOnUse"><stop offset="0" stop-color="#49df28"/><stop offset="1" stop-color="#11acec"/></linearGradient></defs><title>Favicon</title><path class="cls-1" d="M22.05,25.17l2.94-1a12.15,12.15,0,0,1-18,0l3,1,0-.05-1.29-.94L5.37,21.75a.85.85,0,0,1-.32-.36q-.52-1.45-1-2.91a.84.84,0,0,1,0-.23l7.18,5.21,0,0L11,23.1C8.75,20,6.47,16.84,4.21,13.7a.63.63,0,0,1-.1-.48c.19-.7.41-1.39.63-2.09h.11l4,5.55c1.35,1.85,2.7,3.71,4.1,5.54-.27-.84-.55-1.68-.82-2.52-1.37-4.21-2.73-8.43-4.11-12.64a.33.33,0,0,1,.13-.45c.49-.35,1-.72,1.52-1.12.88,2.73,1.74,5.39,2.61,8s1.73,5.33,2.66,8V3.8h2V21.54h.08L22.32,5.48c.57.42,1.1.82,1.62,1.23.06,0,0,.24,0,.35-.6,1.87-1.21,3.73-1.81,5.6q-1.52,4.68-3,9.36a.29.29,0,0,0,0,.21l8.1-11.15c.1.23.2.41.26.6.16.5.3,1,.46,1.5a.54.54,0,0,1-.1.54l-6.95,9.55a.26.26,0,0,0-.05.19L28,18.26a1.38,1.38,0,0,1,0,.29c-.07.29-.14.58-.22.87-.62,2-.63,2-2.32,3.22L22.17,25l-.15.12Z"/></svg>