<svg width="224" height="68" viewBox="0 0 224 68" fill="none" xmlns="http://www.w3.org/2000/svg">
<path d="M15.8095 56.8824C11.8865 56.8824 8.55201 56.0193 5.80595 54.254C3.09912 52.4886 1.13765 50.0564 0 46.9573L6.78669 42.9952C8.35587 47.075 11.455 49.1541 16.0448 49.1541C18.2024 49.1541 19.8109 48.7619 20.8701 48.0165C21.9292 47.2319 22.4785 46.212 22.4785 44.9174C22.4785 43.5052 21.8508 42.4067 20.5954 41.6614C19.3401 40.8768 17.0648 40.0137 13.8088 39.0722C10.2781 38.013 7.53205 36.7577 5.49212 35.3454C2.98144 33.4624 1.68686 30.7164 1.68686 27.0681C1.68686 23.3805 2.98144 20.5168 5.53135 18.3984C8.08126 16.2015 11.2196 15.1423 14.8679 15.1423C18.0848 15.1423 20.9485 15.9269 23.42 17.4961C25.8914 19.0653 27.8529 21.3013 29.2259 24.1651L22.5569 28.0096C20.9485 24.5574 18.3986 22.8313 14.8679 22.8313C13.2595 22.8313 11.965 23.2236 11.0235 23.9689C10.082 24.7143 9.57198 25.695 9.57198 26.8719C9.57198 28.1273 10.082 29.1865 11.1412 29.971C12.2788 30.7556 14.3187 31.6186 17.2217 32.4817L19.9678 33.384C20.4778 33.5409 21.3408 33.8547 22.5569 34.3647C23.6946 34.7962 24.5576 35.1885 25.0676 35.5808C26.9506 36.7185 28.206 37.9346 28.8729 39.1507C29.8536 40.7591 30.3636 42.6421 30.3636 44.8389C30.3636 48.5657 28.9905 51.5079 26.2837 53.6655C23.6161 55.7839 20.1247 56.8824 15.8095 56.8824Z" fill="white"/>
<path d="M50.9979 26.5583C54.8816 26.5583 58.1376 28.0491 60.8837 30.9913C63.6297 33.9335 65.0028 37.5034 65.0028 41.7401C65.0028 46.0161 63.6297 49.6252 60.8837 52.5282C58.2161 55.4312 54.9208 56.8826 50.9979 56.8826C46.9965 56.8826 43.8973 55.4704 41.7005 52.6851V67.553H34.2861V27.3822H41.7005V30.7559C43.8581 27.9706 46.9572 26.5583 50.9979 26.5583ZM43.9366 47.5853C45.4273 49.076 47.3103 49.8214 49.6248 49.8214C51.9394 49.8214 53.8224 49.076 55.3131 47.5853C56.843 46.0553 57.6276 44.0939 57.6276 41.7401C57.6276 39.3864 56.843 37.4249 55.3131 35.9342C53.8224 34.4042 51.9394 33.6196 49.6248 33.6196C47.3103 33.6196 45.4273 34.4042 43.9366 35.9342C42.4459 37.4249 41.7005 39.3471 41.7005 41.7401C41.7005 44.0939 42.4459 46.0553 43.9366 47.5853Z" fill="white"/>
<path d="M90.7769 30.7558V27.3821H98.1912V56.098H90.7769V52.7243C88.5408 55.5095 85.4417 56.9218 81.4403 56.9218C77.5958 56.9218 74.3398 55.4703 71.5545 52.5673C68.8476 49.6251 67.4746 46.016 67.4746 41.7793C67.4746 37.5817 68.8476 34.0118 71.5545 31.0304C74.3005 28.0882 77.5958 26.5975 81.4403 26.5975C85.4417 26.5582 88.5408 27.9705 90.7769 30.7558ZM77.125 47.5852C78.6158 49.0759 80.4988 49.8213 82.8133 49.8213C85.1278 49.8213 87.0109 49.0759 88.5016 47.5852C90.0315 46.0552 90.8161 44.0938 90.8161 41.74C90.8161 39.3863 90.0315 37.4248 88.5016 35.9341C87.0109 34.4041 85.1278 33.6195 82.8133 33.6195C80.4988 33.6195 78.6158 34.4041 77.125 35.9341C75.6343 37.4248 74.889 39.347 74.889 41.74C74.889 44.0938 75.6343 46.0552 77.125 47.5852Z" fill="white"/>
<path d="M111.059 27.3821V32.3251C111.726 30.5205 112.824 29.1475 114.393 28.206C115.962 27.2645 117.767 26.7937 119.807 26.7937V35.0711C117.532 34.7573 115.531 35.228 113.726 36.4442C111.961 37.621 111.098 39.5825 111.098 42.3678V56.098H103.684V27.3821H111.059Z" fill="white"/>
<path d="M136.911 41.5442L148.797 56.059H140.206L129.771 43.0349V56.059H122.356V15.8882H129.771V40.0142L139.657 27.3823H148.483L136.911 41.5442Z" fill="white"/>
<path d="M164.528 47.4673L171.55 27.3818H179.71L168.804 56.0977H160.37L149.464 27.3818H157.624L164.528 47.4673Z" fill="white"/>
<path d="M189.361 56.0587H181.946V27.3428H189.361V56.0587Z" fill="white"/>
<path d="M216.585 30.7558V27.3821H224V56.098H216.585V52.7243C214.349 55.5095 211.25 56.9218 207.249 56.9218C203.404 56.9218 200.148 55.4703 197.363 52.5673C194.656 49.6251 193.283 46.016 193.283 41.7793C193.283 37.5817 194.656 34.0118 197.363 31.0304C200.109 28.0882 203.404 26.5975 207.249 26.5975C211.25 26.5582 214.349 27.9705 216.585 30.7558ZM202.934 47.5852C204.424 49.0759 206.307 49.8213 208.622 49.8213C210.936 49.8213 212.819 49.0759 214.31 47.5852C215.84 46.0552 216.625 44.0938 216.625 41.74C216.625 39.3863 215.84 37.4248 214.31 35.9341C212.819 34.4041 210.936 33.6195 208.622 33.6195C206.307 33.6195 204.424 34.4041 202.934 35.9341C201.443 37.4248 200.698 39.347 200.698 41.74C200.658 44.0938 201.443 46.0552 202.934 47.5852Z" fill="white"/>
<path d="M191.479 20.5954C192.421 20.2816 193.323 20.0069 194.304 19.6931C190.067 24.5183 181.946 25.0675 176.964 19.6931C177.984 20.0069 178.887 20.3208 179.828 20.6346C179.828 20.6346 179.828 20.5954 179.867 20.5954C179.436 20.2816 179.043 19.9677 178.612 19.6931C177.553 18.9085 176.454 18.1239 175.395 17.3393C175.277 17.2609 175.121 17.1432 175.081 16.9863C174.728 16.0448 174.414 15.1033 174.101 14.201C174.101 14.1618 174.101 14.0833 174.101 13.9656C176.415 15.6525 178.73 17.3394 181.005 18.987L181.044 18.9477C180.966 18.8301 180.887 18.7516 180.809 18.6339C178.612 15.6133 176.415 12.5926 174.258 9.57197C174.179 9.45428 174.14 9.2581 174.179 9.10119C174.375 8.43429 174.571 7.7674 174.767 7.1005C174.807 7.1005 174.846 7.1005 174.885 7.1005C176.18 8.86582 177.474 10.6704 178.769 12.4357C180.063 14.2402 181.358 16.0055 182.731 17.7709C182.456 16.947 182.221 16.1625 181.946 15.3387C180.613 11.298 179.318 7.21819 177.984 3.17757C177.906 2.98142 177.945 2.86374 178.102 2.74605C178.573 2.39299 179.043 2.03991 179.553 1.64761C180.417 4.27598 181.24 6.82591 182.064 9.37582C182.888 11.9257 183.751 14.5149 184.614 17.0648C184.614 11.3765 184.614 5.72748 184.614 0C185.281 0 185.909 0 186.576 0C186.576 5.72748 186.576 11.3765 186.576 17.0648C186.615 17.0648 186.615 17.0648 186.654 17.0648C188.341 11.9257 189.988 6.78666 191.675 1.60839C192.225 2.03992 192.735 2.39298 193.245 2.78527C193.284 2.8245 193.284 3.02066 193.245 3.13835C192.656 4.9429 192.068 6.74743 191.518 8.51275C190.538 11.5334 189.557 14.5148 188.576 17.5355C188.576 17.614 188.537 17.6532 188.576 17.7316C191.165 14.1618 193.755 10.6311 196.383 6.98279C196.461 7.21817 196.579 7.37509 196.618 7.57123C196.775 8.04198 196.893 8.51276 197.05 9.02275C197.128 9.21889 197.089 9.37578 196.932 9.5327C194.696 12.5926 192.46 15.6525 190.263 18.7124C190.224 18.7516 190.224 18.7908 190.224 18.9085C192.499 17.2609 194.814 15.5741 197.128 13.8872C197.128 14.0049 197.128 14.0833 197.128 14.1618C197.05 14.4364 197.011 14.711 196.893 14.9856C196.304 16.9078 196.304 16.9078 194.657 18.0847C193.598 18.8301 192.578 19.6147 191.518 20.36C191.479 20.3993 191.44 20.4385 191.362 20.4777C191.44 20.5954 191.44 20.5954 191.479 20.5954Z" fill="url(#paint0_linear_1612_4990)"/>
<defs>
<linearGradient id="paint0_linear_1612_4990" x1="185.645" y1="0.0377386" x2="185.645" y2="23.5274" gradientUnits="userSpaceOnUse">
<stop stop-color="#49DF28"/>
<stop offset="1" stop-color="#11ACEC"/>
</linearGradient>
</defs>
</svg>
