<svg width="31" height="31" viewBox="0 0 31 31" fill="none" xmlns="http://www.w3.org/2000/svg">
<rect width="31" height="31" rx="5.34483" fill="#122410"/>
<path d="M10.8819 20.1143H9.19094C8.72239 20.1143 8.29649 19.9223 7.98723 19.6137C7.67664 19.3031 7.48535 18.8772 7.48535 18.4087V10.9424C7.48535 10.4739 7.67731 10.048 7.9859 9.73872C8.29649 9.42813 8.72239 9.23684 9.19094 9.23684H12.5161V8.56966C12.5161 8.28973 12.6307 8.03312 12.8167 7.84782L12.8187 7.84582C13.004 7.66054 13.2599 7.5459 13.5399 7.5459H17.4608C17.7414 7.5459 17.9974 7.66054 18.1827 7.84649L18.1847 7.84849C18.37 8.03377 18.4846 8.28971 18.4846 8.56966V9.23684H21.8098C22.2783 9.23684 22.7042 9.42879 23.0135 9.73739C23.3241 10.048 23.5154 10.4739 23.5154 10.9424V18.4087C23.5154 18.8772 23.3234 19.3031 23.0148 19.6124C22.7042 19.923 22.2783 20.1143 21.8098 20.1143H20.1182V22.8463C20.1182 23.035 19.9655 23.1876 19.7769 23.1876H11.2229C11.0343 23.1876 10.8817 23.035 10.8817 22.8463L10.8819 20.1143ZM18.1562 20.4275C18.3448 20.4275 18.4974 20.5802 18.4974 20.7688C18.4974 20.9574 18.3448 21.11 18.1562 21.11H17.4897C17.301 21.11 17.1484 20.9574 17.1484 20.7688C17.1484 20.5801 17.3011 20.4275 17.4897 20.4275H18.1562ZM13.51 20.4275C13.6987 20.4275 13.8513 20.5802 13.8513 20.7688C13.8513 20.9574 13.6987 21.11 13.51 21.11H12.8435C12.6549 21.11 12.5023 20.9574 12.5023 20.7688C12.5023 20.5801 12.6549 20.4275 12.8435 20.4275H13.51ZM15.5002 19.5811C15.8281 19.5811 16.1247 19.7144 16.34 19.929C16.5546 20.1436 16.6879 20.4409 16.6879 20.7688C16.6879 21.0967 16.5546 21.3933 16.34 21.6086C16.1254 21.8232 15.8281 21.9565 15.5002 21.9565C15.1723 21.9565 14.875 21.8232 14.6604 21.6086C14.4458 21.394 14.3125 21.0967 14.3125 20.7688C14.3125 20.4409 14.4458 20.1436 14.6604 19.929C14.875 19.7144 15.1723 19.5811 15.5002 19.5811ZM15.8575 20.4115C15.7662 20.3202 15.6395 20.2636 15.5002 20.2636C15.3609 20.2636 15.2343 20.3202 15.143 20.4115C15.0516 20.5028 14.995 20.6295 14.995 20.7688C14.995 20.9081 15.0516 21.0347 15.143 21.126C15.2343 21.2174 15.3609 21.274 15.5002 21.274C15.6395 21.274 15.7661 21.2174 15.8575 21.126C15.9488 21.0347 16.0054 20.9081 16.0054 20.7688C16.0054 20.6295 15.9488 20.5029 15.8575 20.4115ZM20.1185 19.4318H21.8101C22.092 19.4318 22.348 19.3165 22.5333 19.1312C22.7186 18.9459 22.8339 18.6893 22.8339 18.408V13.8431C22.112 14.3923 21.3429 14.8508 20.5417 15.2168C19.5892 15.6527 18.5942 15.9586 17.5823 16.1345C17.543 16.6464 17.3191 17.107 16.9771 17.4489C16.5999 17.8261 16.0774 18.0601 15.5008 18.0601C14.9243 18.0601 14.4024 17.8261 14.0245 17.4489C13.6826 17.107 13.4587 16.6464 13.4193 16.1339C12.4076 15.9579 11.4118 15.652 10.46 15.2161C9.65887 14.8495 8.88972 14.3916 8.16782 13.8424V18.4073C8.16782 18.6893 8.28313 18.9452 8.46841 19.1305C8.6537 19.3158 8.9103 19.4311 9.19158 19.4311H10.8825V18.6913C10.8825 18.5027 11.0351 18.35 11.2238 18.35H19.7778C19.9664 18.35 20.119 18.5027 20.119 18.6913V19.4311L20.1185 19.4318ZM19.436 19.0332H11.5645V22.5058H19.436V19.0332ZM15.5003 14.7862C15.8283 14.7862 16.1249 14.9195 16.3402 15.1341C16.5548 15.3487 16.6881 15.646 16.6881 15.9739C16.6881 16.3018 16.5548 16.5984 16.3402 16.8137C16.1255 17.0283 15.8283 17.1616 15.5003 17.1616C15.1724 17.1616 14.8752 17.0283 14.6605 16.8137C14.4459 16.5991 14.3126 16.3018 14.3126 15.9739C14.3126 15.646 14.4459 15.3487 14.6605 15.1341C14.8752 14.9195 15.1724 14.7862 15.5003 14.7862ZM15.8576 15.6166C15.7663 15.5253 15.6397 15.4687 15.5003 15.4687C15.361 15.4687 15.2344 15.5253 15.1431 15.6166C15.0518 15.7079 14.9951 15.8346 14.9951 15.9739C14.9951 16.1132 15.0518 16.2398 15.1431 16.3311C15.2344 16.4225 15.361 16.4791 15.5003 16.4791C15.6397 16.4791 15.7663 16.4225 15.8576 16.3311C15.9489 16.2398 16.0056 16.1132 16.0056 15.9739C16.0056 15.8346 15.9489 15.7079 15.8576 15.6166ZM17.5225 15.454C18.4603 15.2867 19.3801 15.0014 20.2585 14.5995C21.167 14.1843 22.0341 13.6418 22.8333 12.9733V10.9418C22.8333 10.6599 22.718 10.4039 22.5327 10.2186C22.3474 10.0334 22.0908 9.91804 21.8095 9.91804H9.19054C8.90861 9.91804 8.65267 10.0333 8.46737 10.2186C8.28209 10.4039 8.16678 10.6605 8.16678 10.9418V12.9733C8.96592 13.6418 9.83304 14.1837 10.7415 14.5995C11.62 15.0014 12.5404 15.2867 13.4775 15.454C13.5722 15.0861 13.7634 14.7582 14.0234 14.4982C14.4006 14.121 14.9232 13.887 15.4997 13.887C16.0762 13.887 16.5981 14.121 16.976 14.4982C17.2359 14.7582 17.4279 15.0867 17.5219 15.454H17.5225ZM16.4941 14.9808C16.2402 14.7268 15.8883 14.5695 15.5004 14.5695C15.1125 14.5695 14.7612 14.7268 14.5066 14.9808C14.2527 15.2347 14.0954 15.5866 14.0954 15.9745C14.0954 16.3624 14.2527 16.7137 14.5066 16.9683C14.7605 17.2222 15.1125 17.3795 15.5004 17.3795C15.8883 17.3795 16.2395 17.2222 16.4941 16.9683C16.7481 16.7144 16.9054 16.3624 16.9054 15.9745C16.9054 15.5866 16.7481 15.2354 16.4941 14.9808ZM13.199 9.23615H17.8025V8.56897C17.8025 8.47433 17.7645 8.38901 17.7038 8.32835C17.6419 8.26637 17.5559 8.22771 17.4619 8.22771H13.5409C13.4463 8.22771 13.361 8.2657 13.3003 8.32636C13.2383 8.38834 13.1997 8.47432 13.1997 8.5683V9.23549L13.199 9.23615Z" fill="#49DF28"/>
</svg>
