<svg width="31" height="31" viewBox="0 0 31 31" fill="none" xmlns="http://www.w3.org/2000/svg">
<rect width="31" height="31" rx="5.34483" fill="#122410"/>
<path d="M23.4581 11.9561C23.1808 11.0713 21.9966 8.54569 21.9966 8.54569C21.8292 8.15296 21.4432 7.89826 21.0165 7.89893H9.98428C9.55756 7.89826 9.17151 8.15296 9.00415 8.54569C9.00415 8.54569 7.81999 11.0714 7.54262 11.9561C7.52262 12.0247 7.50861 12.0954 7.49928 12.1661C7.46794 12.4755 7.49928 13.4103 7.49928 13.4103C7.49928 14.2971 7.88934 15.1385 8.56609 15.7112V21.7672C8.56676 22.356 9.04416 22.8334 9.6329 22.834H21.3678C21.9565 22.8334 22.434 22.356 22.4346 21.7672V15.7112C23.1114 15.1384 23.5014 14.297 23.5014 13.4103C23.5014 13.4103 23.5328 12.4755 23.5014 12.1661C23.4921 12.0954 23.4781 12.0247 23.4581 11.9561ZM9.98423 8.96558H21.0164L22.1592 11.6326H8.84152L9.98423 8.96558ZM8.56604 13.4102V12.6994H12.4779V13.4102C12.4779 14.4903 11.6018 15.3664 10.5216 15.3664C9.44147 15.3664 8.56604 14.4903 8.56604 13.4102ZM13.5447 12.6994H17.4559V13.4102C17.4559 14.4903 16.5804 15.3664 15.5003 15.3664C14.4202 15.3664 13.5447 14.4903 13.5447 13.4102V12.6994ZM21.3678 21.7673H9.63285V16.2992C10.2483 16.4893 10.9077 16.4766 11.515 16.2652C12.1231 16.0532 12.6472 15.6525 13.0112 15.1218C13.574 15.9425 14.5048 16.4333 15.5002 16.4333C16.4957 16.4333 17.4265 15.9425 17.9892 15.1218C18.3533 15.6525 18.8773 16.0532 19.4854 16.2652C20.0928 16.4766 20.7523 16.4893 21.3676 16.2992L21.3678 21.7673ZM20.479 15.3664C19.3988 15.3651 18.5241 14.4903 18.5227 13.4102V12.6994H22.4346V13.4102C22.4332 14.4903 21.5585 15.3651 20.479 15.3664Z" fill="#49DF28"/>
</svg>
