<svg width="25" height="26" viewBox="0 0 25 26" fill="none" xmlns="http://www.w3.org/2000/svg">
<path d="M21.4442 6.80442C18.534 4.62692 15.746 4.68792 15.746 4.68792L15.461 5.01342C18.9207 6.05142 20.5285 7.57767 20.5285 7.57767C15.5787 4.85242 9.27375 4.87192 4.12525 7.57767C4.12525 7.57767 5.794 5.96992 9.45725 4.93192L9.25375 4.68767C9.25375 4.68767 6.486 4.62667 3.5555 6.80417C3.5555 6.80417 0.625 12.0752 0.625 18.5672C0.625 18.5672 2.3345 21.4977 6.83225 21.6402C6.83225 21.6402 7.58525 20.7447 8.19575 19.9714C5.611 19.1982 4.63425 17.5904 4.63425 17.5904C6.258 18.6064 7.9 19.2424 9.946 19.6459C13.275 20.3312 17.4157 19.6267 20.5082 17.5904C20.5082 17.5904 19.4907 19.2389 16.8247 19.9919C17.4352 20.7449 18.168 21.6199 18.168 21.6199C22.6652 21.4777 24.3747 18.5472 24.3747 18.5674C24.3747 12.0754 21.4442 6.80442 21.4442 6.80442ZM8.70425 16.6749C7.5645 16.6749 6.6285 15.6777 6.6285 14.4362C6.71175 11.4632 10.7177 11.4724 10.7802 14.4362C10.78 15.6777 9.86425 16.6749 8.70425 16.6749ZM16.1325 16.6749C14.9927 16.6749 14.0567 15.6777 14.0567 14.4362C14.1482 11.4689 18.1042 11.4677 18.2085 14.4362C18.2082 15.6777 17.2925 16.6749 16.1325 16.6749Z" fill="#00A234"/>
</svg>
