<svg width="81" height="82" viewBox="0 0 81 82" fill="none" xmlns="http://www.w3.org/2000/svg">
<path d="M60.8748 71.5503C64.1457 70.46 67.2803 69.5059 70.6874 68.4156C55.9685 85.1788 27.7572 87.0868 10.4489 68.4156C13.9923 69.5059 17.1269 70.5962 20.3978 71.6865C20.3978 71.6865 20.3978 71.5503 20.5341 71.5503C19.0349 70.46 17.6721 69.3696 16.1729 68.4156C12.4932 65.6899 8.67716 62.9642 4.99743 60.2384C4.58857 59.9659 4.04344 59.557 3.90716 59.0118C2.68058 55.741 1.59029 52.4701 0.5 49.3356C0.5 49.1993 0.5 48.9267 0.5 48.5179C8.54089 54.3782 16.5817 60.2385 24.4863 65.9626L24.6226 65.8261C24.3501 65.4173 24.0775 65.1448 23.8049 64.736C16.1729 54.2419 8.54088 43.7479 1.04514 33.2539C0.772564 32.845 0.636261 32.1635 0.772548 31.6183C1.45398 29.3015 2.13541 26.9846 2.81684 24.6678C2.95313 24.6678 3.08944 24.6678 3.22572 24.6678C7.72317 30.8007 12.2206 37.0698 16.7181 43.2027C21.2155 49.4718 25.713 55.6047 30.483 61.7376C29.529 58.8756 28.7113 56.1499 27.7572 53.2879C23.1235 39.2504 18.6261 25.0766 13.9923 11.0392C13.7198 10.3577 13.856 9.9489 14.4012 9.54004C16.0366 8.31346 17.6721 7.08682 19.4438 5.72396C22.4421 14.8551 25.3041 23.7138 28.1661 32.5724C31.0281 41.431 34.0264 50.4259 37.0247 59.2845C37.0247 39.523 37.0247 19.8978 37.0247 0C39.3416 0 41.5221 0 43.839 0C43.839 19.8978 43.839 39.523 43.839 59.2845C43.9753 59.2845 43.9753 59.2845 44.1116 59.2845C49.9719 41.431 55.6959 23.5775 61.5562 5.5877C63.4642 7.08685 65.236 8.31343 67.0077 9.67629C67.144 9.81258 67.144 10.494 67.0077 10.9029C64.9634 17.1721 62.9191 23.4412 61.0111 29.574C57.6039 40.0681 54.1968 50.4258 50.7896 60.9199C50.7896 61.1925 50.6533 61.3287 50.7896 61.6013C59.7845 49.1993 68.7794 36.9335 77.9106 24.2589C78.1831 25.0766 78.592 25.6217 78.7283 26.3031C79.2734 27.9386 79.6823 29.5741 80.2275 31.3458C80.5 32.0273 80.3637 32.5723 79.8186 33.1175C72.0503 43.7478 64.2819 54.3781 56.6499 65.0085C56.5136 65.1448 56.5136 65.281 56.5136 65.6899C64.4182 59.9659 72.4591 54.1057 80.5 48.2454C80.5 48.6542 80.5 48.9267 80.5 49.1993C80.2274 50.1533 80.0911 51.1073 79.6823 52.0613C77.638 58.7393 77.638 58.7393 71.914 62.8279C68.2343 65.4174 64.6908 68.1432 61.0111 70.7326C60.8748 70.8689 60.7385 71.0051 60.466 71.1413C60.7385 71.5502 60.7385 71.5503 60.8748 71.5503Z" fill="url(#paint0_linear_1612_4969)"/>
<defs>
<linearGradient id="paint0_linear_1612_4969" x1="40.6079" y1="0.131107" x2="40.6079" y2="81.7362" gradientUnits="userSpaceOnUse">
<stop stop-color="#49DF28"/>
<stop offset="1" stop-color="#11ACEC"/>
</linearGradient>
</defs>
</svg>
