<svg width="120" height="37" viewBox="0 0 120 37" fill="none" xmlns="http://www.w3.org/2000/svg">
<path d="M8.46935 30.4729C6.36777 30.4729 4.58144 30.0105 3.11033 29.0648C1.66024 28.1191 0.609457 26.8161 0 25.1559L3.63573 23.0333C4.47636 25.2189 6.1366 26.3328 8.59544 26.3328C9.75131 26.3328 10.613 26.1226 11.1804 25.7233C11.7478 25.303 12.042 24.7566 12.042 24.0631C12.042 23.3065 11.7058 22.718 11.0333 22.3187C10.3608 21.8984 9.14185 21.4361 7.39755 20.9317C5.50613 20.3643 4.03503 19.6918 2.94221 18.9352C1.5972 17.9265 0.903678 16.4554 0.903678 14.5009C0.903678 12.5254 1.5972 10.9913 2.96322 9.8564C4.32925 8.67952 6.01051 8.11208 7.96497 8.11208C9.68826 8.11208 11.2224 8.5324 12.5464 9.37303C13.8704 10.2137 14.9212 11.4116 15.6567 12.9457L12.0841 15.0053C11.2224 13.1559 9.85639 12.2312 7.96497 12.2312C7.10333 12.2312 6.40981 12.4413 5.90543 12.8406C5.40105 13.2399 5.12785 13.7653 5.12785 14.3958C5.12785 15.0683 5.40105 15.6357 5.96848 16.0561C6.57793 16.4764 7.67075 16.9387 9.22592 17.401L10.697 17.8844C10.9702 17.9685 11.4326 18.1366 12.0841 18.4098C12.6935 18.641 13.1559 18.8511 13.4291 19.0613C14.4378 19.6708 15.1103 20.3222 15.4676 20.9737C15.993 21.8354 16.2662 22.8441 16.2662 24.021C16.2662 26.0175 15.5306 27.5937 14.0806 28.7496C12.6515 29.8844 10.7811 30.4729 8.46935 30.4729Z" fill="white"/>
<path d="M27.3209 14.2277C29.4014 14.2277 31.1457 15.0263 32.6168 16.6025C34.088 18.1786 34.8235 20.0911 34.8235 22.3608C34.8235 24.6515 34.088 26.585 32.6168 28.1401C31.1878 29.6953 29.4225 30.4729 27.3209 30.4729C25.1773 30.4729 23.517 29.7163 22.3401 28.2242V36.1892H18.3682V14.669H22.3401V16.4764C23.496 14.9843 25.1563 14.2277 27.3209 14.2277ZM23.538 25.4921C24.3366 26.2907 25.3454 26.69 26.5853 26.69C27.8253 26.69 28.834 26.2907 29.6326 25.4921C30.4522 24.6725 30.8725 23.6217 30.8725 22.3608C30.8725 21.0998 30.4522 20.049 29.6326 19.2504C28.834 18.4308 27.8253 18.0105 26.5853 18.0105C25.3454 18.0105 24.3366 18.4308 23.538 19.2504C22.7394 20.049 22.3401 21.0788 22.3401 22.3608C22.3401 23.6217 22.7394 24.6725 23.538 25.4921Z" fill="white"/>
<path d="M48.6308 16.4764V14.669H52.6028V30.0525H48.6308V28.2452C47.4329 29.7373 45.7727 30.4939 43.6291 30.4939C41.5695 30.4939 39.8252 29.7163 38.3331 28.1611C36.883 26.5849 36.1475 24.6515 36.1475 22.3818C36.1475 20.1331 36.883 18.2207 38.3331 16.6235C39.8042 15.0473 41.5695 14.2487 43.6291 14.2487C45.7727 14.2277 47.4329 14.9842 48.6308 16.4764ZM41.3173 25.4921C42.1159 26.2907 43.1247 26.69 44.3646 26.69C45.6046 26.69 46.6133 26.2907 47.4119 25.4921C48.2315 24.6725 48.6518 23.6217 48.6518 22.3608C48.6518 21.0998 48.2315 20.049 47.4119 19.2504C46.6133 18.4308 45.6046 18.0105 44.3646 18.0105C43.1247 18.0105 42.1159 18.4308 41.3173 19.2504C40.5187 20.049 40.1194 21.0788 40.1194 22.3608C40.1194 23.6217 40.5187 24.6725 41.3173 25.4921Z" fill="white"/>
<path d="M59.4959 14.669V17.317C59.8531 16.3503 60.4416 15.6147 61.2822 15.1103C62.1229 14.606 63.0896 14.3538 64.1824 14.3538V18.7881C62.9635 18.62 61.8917 18.8722 60.925 19.5237C59.9792 20.1541 59.5169 21.2049 59.5169 22.697V30.0526H55.5449V14.669H59.4959Z" fill="white"/>
<path d="M73.3447 22.2557L79.7125 30.0315H75.11L69.5198 23.0543V30.0315H65.5479V8.51139H69.5198V21.4361L74.8158 14.669H79.5443L73.3447 22.2557Z" fill="white"/>
<path d="M88.1404 25.4291L91.9022 14.669H96.2735L90.4311 30.0526H85.9127L80.0703 14.669H84.4416L88.1404 25.4291Z" fill="white"/>
<path d="M101.443 30.0315H97.4707V14.648H101.443V30.0315Z" fill="white"/>
<path d="M116.028 16.4764V14.669H120V30.0525H116.028V28.2452C114.83 29.7373 113.17 30.4939 111.027 30.4939C108.967 30.4939 107.223 29.7163 105.731 28.1611C104.28 26.5849 103.545 24.6515 103.545 22.3818C103.545 20.1331 104.28 18.2207 105.731 16.6235C107.202 15.0473 108.967 14.2487 111.027 14.2487C113.17 14.2277 114.83 14.9842 116.028 16.4764ZM108.715 25.4921C109.513 26.2907 110.522 26.69 111.762 26.69C113.002 26.69 114.011 26.2907 114.809 25.4921C115.629 24.6725 116.049 23.6217 116.049 22.3608C116.049 21.0998 115.629 20.049 114.809 19.2504C114.011 18.4308 113.002 18.0105 111.762 18.0105C110.522 18.0105 109.513 18.4308 108.715 19.2504C107.916 20.049 107.517 21.0788 107.517 22.3608C107.496 23.6217 107.916 24.6725 108.715 25.4921Z" fill="white"/>
<path d="M102.578 11.0333C103.082 10.8652 103.565 10.718 104.091 10.5499C101.821 13.1348 97.4707 13.4291 94.8017 10.5499C95.3481 10.718 95.8315 10.8862 96.3359 11.0543C96.3359 11.0543 96.3359 11.0333 96.3569 11.0333C96.1257 10.8652 95.9156 10.697 95.6844 10.5499C95.117 10.1296 94.5285 9.70928 93.9611 9.28896C93.898 9.24693 93.814 9.18388 93.793 9.09981C93.6038 8.59544 93.4357 8.09106 93.2676 7.6077C93.2676 7.58668 93.2676 7.54466 93.2676 7.48161C94.5075 8.38529 95.7474 9.28898 96.9663 10.1716L96.9874 10.1506C96.9453 10.0876 96.9033 10.0455 96.8613 9.98249C95.6844 8.36428 94.5075 6.74607 93.3516 5.12785C93.3096 5.06481 93.2886 4.95971 93.3096 4.87565C93.4147 4.51838 93.5198 4.16112 93.6248 3.80385C93.6459 3.80385 93.6669 3.80385 93.6879 3.80385C94.3814 4.74956 95.0749 5.71628 95.7685 6.66199C96.462 7.62872 97.1555 8.57442 97.891 9.52013C97.7439 9.0788 97.6178 8.65849 97.4707 8.21716C96.7562 6.05254 96.0627 3.8669 95.3481 1.70227C95.3061 1.59719 95.3271 1.53415 95.4112 1.4711C95.6634 1.28196 95.9156 1.09281 96.1888 0.882652C96.6511 2.29071 97.0924 3.65675 97.5338 5.02278C97.9751 6.3888 98.4375 7.77584 98.8998 9.14186C98.8998 6.09457 98.8998 3.0683 98.8998 0C99.2571 0 99.5933 0 99.9506 0C99.9506 3.0683 99.9506 6.09457 99.9506 9.14186C99.9716 9.14186 99.9716 9.14186 99.9926 9.14186C100.896 6.38879 101.779 3.63572 102.683 0.861642C102.977 1.09282 103.25 1.28196 103.523 1.49211C103.544 1.51313 103.544 1.61821 103.523 1.68126C103.208 2.64799 102.893 3.6147 102.599 4.56041C102.073 6.17863 101.548 7.77583 101.022 9.39404C101.022 9.43607 101.001 9.45709 101.022 9.49912C102.409 7.58668 103.796 5.69526 105.205 3.74079C105.247 3.86689 105.31 3.95095 105.331 4.05603C105.415 4.30822 105.478 4.56042 105.562 4.83363C105.604 4.93871 105.583 5.02275 105.499 5.10682C104.301 6.74605 103.103 8.38528 101.926 10.0245C101.905 10.0455 101.905 10.0665 101.905 10.1296C103.124 9.24693 104.364 8.34327 105.604 7.43959C105.604 7.50264 105.604 7.54466 105.604 7.58669C105.562 7.7338 105.541 7.8809 105.478 8.02802C105.162 9.05779 105.162 9.05779 104.28 9.68827C103.712 10.0876 103.166 10.5079 102.599 10.9072C102.578 10.9282 102.557 10.9492 102.515 10.9702C102.557 11.0333 102.557 11.0333 102.578 11.0333Z" fill="url(#paint0_linear_1612_4947)"/>
<defs>
<linearGradient id="paint0_linear_1612_4947" x1="99.4523" y1="0.0202172" x2="99.4523" y2="12.604" gradientUnits="userSpaceOnUse">
<stop stop-color="#49DF28"/>
<stop offset="1" stop-color="#11ACEC"/>
</linearGradient>
</defs>
</svg>
