<svg width="31" height="31" viewBox="0 0 31 31" fill="none" xmlns="http://www.w3.org/2000/svg">
<rect width="31" height="31" rx="5.34483" fill="#122410"/>
<path d="M7.64244 16.3635V20.6633C7.64244 21.574 8.38066 22.3122 9.29128 22.3122C10.2027 22.3122 10.9409 21.574 10.9409 20.6633V16.3457C11.0607 16.2729 11.1368 16.145 11.1457 16.0049C12.6667 16.2745 14.0006 17.1787 14.815 18.4916C14.8603 19.3949 15.6147 20.0983 16.518 20.0813C17.4222 20.0635 18.1491 19.331 18.1588 18.4268V16.7148C19.3285 16.5044 20.18 15.4861 20.18 14.2978C20.18 13.1088 19.3285 12.0905 18.1588 11.88V10.0757C18.1491 9.17159 17.4222 8.43905 16.518 8.42123C15.6147 8.40342 14.8603 9.10764 14.815 10.011C14.0023 11.3247 12.6675 12.2297 11.1457 12.4976C11.1312 12.2702 10.9417 12.0929 10.7143 12.0937H8.00905C6.9001 12.0945 6.00081 12.9938 6 14.1036V14.3909V14.3901C6.00162 15.3574 6.69214 16.1855 7.64244 16.3635ZM9.29128 21.4485C8.85824 21.4477 8.50692 21.0964 8.50611 20.6633V16.4H10.0772V20.6633C10.0764 21.0964 9.72516 21.4477 9.29128 21.4485ZM19.318 14.2978C19.318 15.0109 18.8428 15.6366 18.1564 15.8301V12.7671C18.8428 12.9606 19.3164 13.5855 19.318 14.2978ZM15.6747 10.0757C15.6747 9.62805 16.0365 9.26625 16.4841 9.26625C16.9309 9.26625 17.2935 9.62807 17.2935 10.0757V18.4163C17.2935 18.8631 16.9309 19.2257 16.4841 19.2257C16.0365 19.2257 15.6747 18.8631 15.6747 18.4163V10.0757ZM14.811 11.4315V17.0604C13.8421 16.017 12.5486 15.3323 11.1417 15.1177V13.3718C12.5486 13.1581 13.842 12.4741 14.811 11.4307V11.4315ZM6.86309 14.1036C6.86309 13.4706 7.37629 12.9574 8.00926 12.9574H10.2845V15.5363H8.00926C7.37708 15.5355 6.86471 15.0231 6.86309 14.3901V14.1036ZM22.9081 11.4139C23.6115 12.2096 24 13.2352 24 14.298C24 15.36 23.6115 16.3855 22.9081 17.1812C22.8263 17.2743 22.7081 17.3277 22.5843 17.3285C22.4143 17.3277 22.2613 17.229 22.1909 17.0744C22.1213 16.9198 22.1488 16.7393 22.2605 16.6114C22.8247 15.9735 23.1371 15.1503 23.1371 14.298C23.1371 13.4456 22.8247 12.6224 22.2605 11.9837C22.1788 11.8988 22.135 11.7846 22.1399 11.6665C22.1456 11.5491 22.1982 11.4382 22.2864 11.3605C22.3746 11.2828 22.4912 11.2447 22.6086 11.2544C22.7259 11.265 22.8336 11.3224 22.9081 11.4139ZM20.8116 15.3575C21.3531 14.7577 21.3531 13.8462 20.8116 13.2463C20.653 13.0675 20.67 12.7939 20.8489 12.6352C21.0277 12.4766 21.3005 12.4936 21.4592 12.6724C22.2913 13.5993 22.2913 15.0045 21.4592 15.9314C21.3774 16.0237 21.2592 16.0763 21.1354 16.0763C20.9654 16.0771 20.8108 15.9775 20.7404 15.8221C20.6708 15.6667 20.6983 15.4846 20.8116 15.3575Z" fill="#49DF28"/>
</svg>
