<svg width="25" height="16" viewBox="0 0 25 16" fill="none" xmlns="http://www.w3.org/2000/svg">
<g clip-path="url(#clip0_1612_5130)">
<path d="M13.9131 8.22278C13.9131 12.3091 10.7986 15.6218 6.95646 15.6218C3.11433 15.6218 0 12.3101 0 8.22278C0 4.1355 3.11457 0.82401 6.95646 0.82401C10.7983 0.82401 13.9131 4.1365 13.9131 8.22278ZM21.5447 8.22278C21.5447 12.0695 19.9873 15.1876 18.0664 15.1876C16.1454 15.1876 14.588 12.0685 14.588 8.22278C14.588 4.37705 16.1454 1.25794 18.0664 1.25794C19.9873 1.25794 21.5447 4.37705 21.5447 8.22278ZM24.6661 8.22278C24.6661 11.6693 24.1183 14.463 23.4428 14.463C22.7672 14.463 22.2194 11.6683 22.2194 8.22278C22.2194 4.77729 22.7672 1.98257 23.443 1.98257C24.1188 1.98257 24.6661 4.77654 24.6661 8.22278ZM43.8654 1.46555L43.8848 1.46106V1.30261H39.9286L36.2551 10.4229L32.5817 1.30261H28.3183V1.46106L28.3375 1.46555C29.0596 1.63772 29.4262 1.89449 29.4262 2.82049V13.6613C29.4262 14.5873 29.0582 14.844 28.3361 15.0162L28.3169 15.0207V15.1796H31.2094V15.0212L31.1903 15.0167C30.4682 14.8445 30.1016 14.5878 30.1016 13.6618V3.4493L34.8205 15.1796H35.0882L39.9446 3.12217V13.9295C39.8828 14.6609 39.5195 14.8867 38.8656 15.0427L38.8462 15.0474V15.2046H43.8848V15.0474L43.8654 15.0427C43.2109 14.8867 42.8388 14.6609 42.7769 13.9295L42.7736 2.82049H42.7769C42.7769 1.89449 43.1435 1.63772 43.8654 1.46555ZM46.1669 8.64698C46.2494 6.69916 46.9115 5.29332 48.0227 5.26911C48.3654 5.2751 48.6529 5.39388 48.8764 5.62245C49.3512 6.10928 49.5744 7.1266 49.5399 8.64698H46.1669ZM46.1171 9.19595H52.0226V9.16974C52.0058 7.68031 51.5974 6.52175 50.8098 5.72625C50.1291 5.0388 49.1211 4.66051 48.0624 4.66051H48.0387C47.4893 4.66051 46.8154 4.80125 46.3358 5.05627C45.7899 5.32326 45.3085 5.72251 44.9079 6.24652C44.263 7.09067 43.8723 8.23152 43.7773 9.5136C43.7742 9.55202 43.7717 9.59045 43.7691 9.62888C43.7665 9.6673 43.7648 9.70174 43.7632 9.73842C43.7548 9.91868 43.7519 10.0992 43.7547 10.2796C43.8187 13.1834 45.3035 15.504 47.9409 15.504C50.2559 15.504 51.604 13.7164 51.9402 11.3169L51.7703 11.2538C51.1798 12.5434 50.1191 13.3249 48.912 13.2296C47.2642 13.0993 46.0018 11.3344 46.1164 9.19644M58.6996 13.131C58.5059 13.6163 58.1017 13.8833 57.5601 13.8833C57.0184 13.8833 56.5233 13.4906 56.1716 12.7769C55.7936 12.0109 55.5947 10.9279 55.5947 9.6451C55.5947 6.97514 56.3809 5.24815 57.5976 5.24815C58.1072 5.24815 58.5083 5.51515 58.6996 5.98102V13.131ZM62.6171 15.0344C61.895 14.854 61.5283 14.5853 61.5283 13.6121V0.664062L57.141 2.02948V2.19667L57.1679 2.19442C57.7731 2.14277 58.1837 2.2311 58.422 2.46366C58.6087 2.64582 58.6996 2.92529 58.6996 3.31855V5.0937C58.2671 4.802 57.7526 4.66001 57.1283 4.66001C55.8621 4.66001 54.7049 5.2232 53.8703 6.24602C53.0003 7.312 52.5404 8.76875 52.5404 10.4583C52.54 13.4759 53.9464 15.504 56.0393 15.504C57.2636 15.504 58.2487 14.7954 58.6996 13.6001V15.2046H62.6362V15.0384L62.6171 15.0344ZM66.3798 2.42499C66.3798 1.48277 65.7073 0.772108 64.8151 0.772108C63.9272 0.772108 63.2324 1.49824 63.2324 2.42499C63.2324 3.35174 63.9279 4.07786 64.8151 4.07786C65.7073 4.07786 66.3798 3.36721 66.3798 2.42499ZM67.4154 15.0344C66.6933 14.854 66.3267 14.5853 66.3267 13.6121H66.3236V4.69071L62.3868 5.8847V6.04689L62.4104 6.04914C63.2622 6.12924 63.4953 6.43915 63.4953 7.49067V15.2046H67.4355V15.0384L67.4154 15.0344ZM77.5032 15.0344C76.7811 14.854 76.4145 14.5853 76.4145 13.6121V4.69071L72.6661 5.84527V6.00797L72.6883 6.01046C73.3847 6.08782 73.586 6.41545 73.586 7.4717V13.111C73.3538 13.5964 72.9182 13.8846 72.3905 13.9041C71.5346 13.9041 71.0634 13.2935 71.0634 12.1848V4.69096L67.1265 5.88495V6.04689L67.1502 6.04914C68.002 6.12899 68.2354 6.4389 68.2354 7.49067V12.2634C68.2333 12.5966 68.2608 12.9292 68.3173 13.257L68.3882 13.5827C68.7215 14.8443 69.5948 15.504 70.963 15.504C72.1219 15.504 73.1376 14.7462 73.585 13.5605V15.2073H77.5219V15.0412L77.5032 15.0344ZM92.7968 15.2046V15.0382L92.7777 15.0334C91.9942 14.8425 91.689 14.4827 91.689 13.7501V7.68156C91.689 5.78938 90.6829 4.66001 88.9977 4.66001C87.7694 4.66001 86.7335 5.40985 86.3348 6.57789C86.018 5.34023 85.1065 4.66001 83.7586 4.66001C82.5746 4.66001 81.6468 5.32002 81.2487 6.43491V4.69145L77.3119 5.83654V5.99973L77.3355 6.00198C78.1772 6.08083 78.4205 6.39973 78.4205 7.42429V15.2046H82.0937V15.0384L82.0743 15.0334C81.4493 14.8782 81.2476 14.5952 81.2476 13.8691V6.91326C81.4129 6.50528 81.7462 6.02194 82.405 6.02194C83.2233 6.02194 83.6381 6.62081 83.6381 7.80058V15.2046H87.3123V15.0384L87.2929 15.0334C86.6679 14.8782 86.4661 14.5952 86.4661 13.8691V7.68081C86.4677 7.44942 86.4504 7.21833 86.4142 6.99011C86.5894 6.5467 86.9419 6.02194 87.6276 6.02194C88.4575 6.02194 88.8607 6.60359 88.8607 7.80058V15.2046H92.7968Z" fill="#00A234"/>
</g>
<defs>
<clipPath id="clip0_1612_5130">
<rect width="25" height="15" fill="white" transform="translate(0 0.664062)"/>
</clipPath>
</defs>
</svg>
