<svg width="24" height="25" viewBox="0 0 24 25" fill="none" xmlns="http://www.w3.org/2000/svg">
<path d="M4 21.5641V2.76406C4 2.43269 4.26863 2.16406 4.6 2.16406H16.2515C16.4106 2.16406 16.5632 2.22728 16.6757 2.3398L19.8243 5.48833C19.9368 5.60085 20 5.75346 20 5.91259V21.5641C20 21.8954 19.7314 22.1641 19.4 22.1641H4.6C4.26863 22.1641 4 21.8954 4 21.5641Z" fill="#00A234" stroke="#00A234" stroke-width="1.5" stroke-linecap="round" stroke-linejoin="round"/>
<path d="M8 10.1641L16 10.1641" stroke="#111111" stroke-width="1.5" stroke-linecap="round" stroke-linejoin="round"/>
<path d="M8 18.1641L16 18.1641" stroke="#111111" stroke-width="1.5" stroke-linecap="round" stroke-linejoin="round"/>
<path d="M8 14.1641L12 14.1641" stroke="#111111" stroke-width="1.5" stroke-linecap="round" stroke-linejoin="round"/>
<path d="M16 2.16406V5.56406C16 5.89543 16.2686 6.16406 16.6 6.16406H20" stroke="#111111" stroke-width="1.5" stroke-linecap="round" stroke-linejoin="round"/>
</svg>
