<svg width="31" height="31" viewBox="0 0 31 31" fill="none" xmlns="http://www.w3.org/2000/svg">
<rect width="31" height="31" rx="5.34483" fill="#122410"/>
<path d="M9.48645 20.5776H12.2925C12.4929 20.5776 12.6265 20.5108 12.7601 20.3771L14.1631 18.9741L21.7794 11.4247C22.0466 11.1574 22.0466 10.7566 21.7794 10.4893L18.9734 7.68334C18.7062 7.4161 18.3053 7.4161 18.0381 7.68334L9.01879 16.569C8.88517 16.7026 8.81836 16.903 8.81836 17.1035V19.9095C8.81836 20.3103 9.0856 20.5776 9.48645 20.5776ZM18.4389 9.01953L20.3096 10.8902L13.6954 17.5043L11.8248 15.6337L18.4389 9.01953ZM10.1545 17.3707L10.8895 16.569L12.7601 18.4397L12.0252 19.2414H10.1545V17.3707Z" fill="#49DF28"/>
<path d="M22.8486 21.9136H8.15052C7.74966 21.9136 7.48242 22.1808 7.48242 22.5817C7.48242 22.9825 7.74966 23.2498 8.15052 23.2498H22.8486C23.2494 23.2498 23.5167 22.9825 23.5167 22.5817C23.5167 22.1808 23.2494 21.9136 22.8486 21.9136Z" fill="#49DF28"/>
<path d="M14.8311 19.9093C14.8311 20.3102 15.0983 20.5774 15.4991 20.5774H22.8482C23.249 20.5774 23.5163 20.3102 23.5163 19.9093C23.5163 19.5084 23.249 19.2412 22.8482 19.2412H15.4991C15.0983 19.2412 14.8311 19.5084 14.8311 19.9093Z" fill="#49DF28"/>
</svg>
