<svg width="34" height="35" viewBox="0 0 34 35" fill="none" xmlns="http://www.w3.org/2000/svg">
<rect y="0.713135" width="34" height="34" rx="17" fill="#49DF28"/>
<path d="M21.2051 10.9778C22.8609 10.4259 23.689 10.1502 24.126 10.5872C24.5628 11.0243 24.2872 11.8525 23.7354 13.5081L20.8975 22.0208C20.1131 24.3738 19.7207 25.5509 19 25.5511C18.2792 25.5511 17.8869 24.374 17.1025 22.0208L16.3535 19.7728L20.707 15.4202C21.0975 15.0297 21.0974 14.3967 20.707 14.0062C20.3165 13.6156 19.6835 13.6156 19.293 14.0062L14.9395 18.3597L12.6924 17.6106C10.3393 16.8263 9.16227 16.4338 9.16211 15.7132C9.16211 14.9924 10.3392 14.6001 12.6924 13.8157L21.2051 10.9778Z" fill="white"/>
</svg>
