<svg width="25" height="26" viewBox="0 0 25 26" fill="none" xmlns="http://www.w3.org/2000/svg">
<path d="M12.4997 23.5804C6.74655 23.5804 2.08301 18.9169 2.08301 13.1637C2.08301 7.41061 6.74655 2.74707 12.4997 2.74707C18.2528 2.74707 22.9163 7.41061 22.9163 13.1637C22.9163 18.9169 18.2528 23.5804 12.4997 23.5804ZM9.26009 14.3825L9.27363 14.3752L10.1799 17.3648C10.2965 17.6887 10.457 17.7471 10.6518 17.72C10.8476 17.6939 10.9507 17.5887 11.0788 17.4658L12.3163 16.27L14.9726 18.2367C15.458 18.5044 15.807 18.3658 15.9278 17.7867L17.6538 9.63874C17.8445 8.8804 17.5111 8.57624 16.9226 8.8179L6.78405 12.7346C6.09238 13.0117 6.09655 13.3992 6.65905 13.571L9.26009 14.3835V14.3825Z" fill="#00A234"/>
</svg>
